<svg width="57" height="19" viewBox="0 0 57 19" fill="none"
  xmlns="http://www.w3.org/2000/svg">
  <mask id="mask0_6165_493" style="mask-type:luminance" maskUnits="userSpaceOnUse" x="0" y="0"
    width="14" height="19">
    <path fill-rule="evenodd" clip-rule="evenodd"
      d="M6.10352e-05 0.136719H13.5242V18.4149H6.10352e-05V0.136719Z" fill="white" />
  </mask>
  <g mask="url(#mask0_6165_493)">
    <path fill-rule="evenodd" clip-rule="evenodd"
      d="M13.5242 18.4134C12.3735 18.4134 11.3284 18.421 10.2838 18.4029C10.1654 18.4008 10.025 18.2759 9.93601 18.1729C7.65213 15.5297 5.37364 12.8816 3.09404 10.2346C3.02028 10.149 2.94404 10.0655 2.80771 9.91173V18.3879H6.10352e-05V0.162297H2.77926V8.52328C2.93078 8.35468 3.0142 8.27018 3.0881 8.17831C5.16452 5.60176 7.24218 3.0263 9.311 0.443886C9.48352 0.228674 9.65631 0.131358 9.94251 0.136946C10.9084 0.156028 11.8749 0.144306 12.9479 0.144306C10.413 3.17977 7.92783 6.15553 5.43289 9.14302C8.1183 12.2198 10.7875 15.278 13.5242 18.4134Z"
      fill="black" />
  </g>
  <mask id="mask1_6165_493" style="mask-type:luminance" maskUnits="userSpaceOnUse" x="30" y="0"
    width="14" height="19">
    <path fill-rule="evenodd" clip-rule="evenodd"
      d="M30.8738 0.188477H43.5384V18.596H30.8738V0.188477Z" fill="white" />
  </mask>
  <g mask="url(#mask1_6165_493)">
    <path fill-rule="evenodd" clip-rule="evenodd"
      d="M41.21 12.093C41.2044 11.2493 41.0701 10.5996 40.7914 9.9792C39.663 7.46766 36.4139 6.93529 34.619 8.96815C33.341 10.4158 33.1828 12.7941 34.258 14.3958C35.3761 16.0612 37.4291 16.6193 39.114 15.6729C40.5717 14.854 41.1479 13.5233 41.21 12.093ZM40.9156 6.60819V0.188477H43.5384V18.4285C42.9365 18.4285 42.3322 18.4352 41.7287 18.419C41.6643 18.4172 41.5855 18.2899 41.5446 18.2061C41.3815 17.8711 41.2306 17.53 41.0599 17.1575C40.2741 17.9128 39.357 18.3155 38.325 18.498C35.2331 19.0448 32.1876 17.258 31.2764 14.2897C30.5172 11.8168 30.7858 9.46933 32.477 7.41302C34.2212 5.29238 37.4087 4.62221 39.7566 5.84084C40.1553 6.04773 40.5104 6.33709 40.9156 6.60819Z"
      fill="black" />
  </g>
  <path fill-rule="evenodd" clip-rule="evenodd"
    d="M54.2483 10.8856C54.258 9.22757 52.6208 7.7527 50.7629 7.72285C48.9124 7.69314 47.3175 9.13189 47.2762 10.8856H54.2483ZM47.2616 13.0871C47.327 14.3917 48.4259 15.6511 49.7917 15.9865C51.2701 16.3496 52.5409 16.0003 53.5659 14.8583C53.6412 14.7745 53.7634 14.6807 53.8653 14.6789C54.7261 14.6647 55.5875 14.6707 56.4945 14.6707C56.1623 15.5454 55.6944 16.2883 55.0596 16.9239C53.8468 18.138 52.3435 18.6096 50.6472 18.5789C47.4738 18.5215 44.8974 16.1914 44.5131 13.0607C44.2927 11.2656 44.5225 9.56056 45.5391 8.03281C46.888 6.00554 48.8275 5.04274 51.2739 5.29952C53.6826 5.55222 55.3217 6.91832 56.2499 9.09388C56.7712 10.3154 56.9698 11.5998 56.6836 12.9238C56.6744 12.9666 56.6584 13.0079 56.6342 13.0871H47.2616Z"
    fill="black" />
  <path fill-rule="evenodd" clip-rule="evenodd"
    d="M29.8933 18.4177H27.2622V18.0237C27.2615 15.6277 27.2702 13.2318 27.2563 10.8359C27.2487 9.51101 26.3025 8.25613 25.0601 7.86345C23.2601 7.29455 21.2964 8.50487 20.9798 10.3851C20.9367 10.6412 20.9211 10.9045 20.9205 11.1646C20.9161 13.4355 20.9179 15.7066 20.9179 17.9776V18.4087H18.304V5.40589C18.8992 5.40589 19.4934 5.39798 20.0868 5.41611C20.1607 5.41843 20.2534 5.54859 20.2977 5.63855C20.4624 5.97179 20.6103 6.31281 20.7765 6.67686C22.0823 5.45973 23.6311 5.11721 25.3098 5.29985C27.4876 5.53687 29.3083 7.24099 29.7382 9.40074C29.8374 9.8985 29.8964 10.4122 29.9 10.9191C29.9165 13.3264 29.9077 15.7338 29.9073 18.141C29.9073 18.22 29.8996 18.299 29.8933 18.4177Z"
    fill="black" />
  <mask id="mask2_6165_493" style="mask-type:luminance" maskUnits="userSpaceOnUse" x="0" y="0"
    width="57" height="19">
    <path fill-rule="evenodd" clip-rule="evenodd" d="M0 18.5965H56.815V0.136719H0V18.5965Z"
      fill="white" />
  </mask>
  <g mask="url(#mask2_6165_493)">
    <path fill-rule="evenodd" clip-rule="evenodd"
      d="M14.2018 18.4175H16.8064V5.41504H14.2018V18.4175Z" fill="black" />
    <path fill-rule="evenodd" clip-rule="evenodd"
      d="M17.1197 1.77148C17.1175 2.64692 16.3772 3.37092 15.4914 3.36384C14.6305 3.35702 13.8871 2.62743 13.8767 1.77952C13.8662 0.926443 14.6289 0.169042 15.5004 0.166998C16.3822 0.164681 17.1219 0.89782 17.1197 1.77148Z"
      fill="black" />
  </g>
</svg>